<svg xmlns="http://www.w3.org/2000/svg" viewBox="790 408 23 23">
  <defs>
    <style>
      .cls-1 {
        fill: #496DDB;
      }

      .cls-2 {
        fill: #fff;
      }
    </style>
  </defs>
  <g id="Group_1916" data-name="Group 1916" transform="translate(-326.933 209)">
    <circle id="Ellipse_3" data-name="Ellipse 3" class="cls-1" cx="11.5" cy="11.5" r="11.5" transform="translate(1116.933 199)"/>
    <g id="auction" transform="translate(1121.933 167.122)">
      <path id="Path_1635" data-name="Path 1635" class="cls-2" d="M218.319,54.886,215.9,55.894l-.527.22-2.709,1.129.324.777,5.658-2.358C218.614,55.618,218.327,54.923,218.319,54.886Z" transform="translate(-206.999 -16.748)"/>
      <path id="Path_1636" data-name="Path 1636" class="cls-2" d="M227.213,73.433a.082.082,0,0,1-.006-.029l-6.826,2.845.185.445,6.829-2.846C227.371,73.826,227.379,73.831,227.213,73.433Z" transform="translate(-215.71 -34.655)"/>
      <path id="Path_1637" data-name="Path 1637" class="cls-2" d="M53.065,109.615l-3.9,1.625-1.589-3.791,3.9-1.625Z" transform="translate(-46.287 -66.966)"/>
      <path id="Path_1638" data-name="Path 1638" class="cls-2" d="M49.642,163.356l-.483.2-1.582-3.794.483-.2Z" transform="translate(-46.287 -119.28)"/>
      <path id="Path_1639" data-name="Path 1639" class="cls-2" d="M28.828,71.515a.368.368,0,0,1-.2.481l-3.97,1.655a.368.368,0,0,1-.481-.2l-.106-.255a.368.368,0,0,1,.2-.481l3.97-1.655a.368.368,0,0,1,.481.2Z" transform="translate(-23.379 -33.097)"/>
      <path id="Path_1640" data-name="Path 1640" class="cls-2" d="M29.11,77.537a1.958,1.958,0,0,0-.14-.317.369.369,0,0,1-.226.366l-3.99,1.663a.369.369,0,0,1-.419-.1.368.368,0,0,0,.021.068l.106.255a.368.368,0,0,0,.481.2l3.97-1.655A.368.368,0,0,0,29.11,77.537Z" transform="translate(-23.661 -39.119)"/>
      <path id="Path_1641" data-name="Path 1641" class="cls-2" d="M101.429,245.7a.368.368,0,0,1-.2.481l-3.97,1.655a.367.367,0,0,1-.481-.2l-.106-.255a.368.368,0,0,1,.2-.481l3.97-1.655a.368.368,0,0,1,.481.2Z" transform="translate(-94.055 -202.664)"/>
      <path id="Path_1642" data-name="Path 1642" class="cls-2" d="M101.516,250.706l-.106-.255a.367.367,0,0,0-.054-.09.368.368,0,0,1-.224.376l-3.971,1.655a.368.368,0,0,1-.425-.105,1.339,1.339,0,0,0,.132.356.367.367,0,0,0,.481.2l3.97-1.655A.368.368,0,0,0,101.516,250.706Z" transform="translate(-94.143 -207.673)"/>
      <path id="Path_1643" data-name="Path 1643" class="cls-2" d="M462.4,36.671a.34.34,0,0,1,.444.183l.311.745a.34.34,0,0,1-.183.444l-.235.1a.34.34,0,0,1-.445-.183l-.311-.745a.34.34,0,0,1,.183-.444Z" transform="translate(-450.793 1.091)"/>
      <path id="Path_1644" data-name="Path 1644" class="cls-2" d="M462.795,40.124c-.464-1.113-.465-1.083-.463-1.214l-.165.069a.34.34,0,0,0-.183.444l.311.745a.34.34,0,0,0,.445.183l.165-.069A.467.467,0,0,1,462.795,40.124Z" transform="translate(-450.793 -1.119)"/>
      <path id="Path_1645" data-name="Path 1645" class="cls-2" d="M44.35,381.615a.36.36,0,0,0-.36-.36H37.185a.36.36,0,0,0-.36.36v.779h7.5V382C44.355,381.93,44.35,381.908,44.35,381.615Z" transform="translate(-35.304 -334.557)"/>
      <path id="Path_1646" data-name="Path 1646" class="cls-2" d="M37.409,381.615a.36.36,0,0,1,.36-.36h-.585a.36.36,0,0,0-.36.36v.779h.585Z" transform="translate(-35.303 -334.557)"/>
      <path id="Path_1647" data-name="Path 1647" class="cls-2" d="M8.945,416.952H.623a.623.623,0,0,0-.623.623v.654a.343.343,0,0,0,.343.343H9.225a.343.343,0,0,0,.343-.343v-.654A.623.623,0,0,0,8.945,416.952Z" transform="translate(0.5 -369.264)"/>
      <path id="Path_1648" data-name="Path 1648" class="cls-2" d="M9.225,442.646H.343A.343.343,0,0,1,0,442.3v.574a.343.343,0,0,0,.343.343H9.225a.343.343,0,0,0,.343-.343V442.3A.343.343,0,0,1,9.225,442.646Z" transform="translate(0.5 -393.912)"/>
    </g>
  </g>
</svg>
