<svg xmlns="http://www.w3.org/2000/svg" viewBox="790 264 23 23">
  <defs>
    <style>
      .cls-1 {
        fill: #04ac5f;
      }

      .cls-2 {
        fill: #fff;
      }
    </style>
  </defs>
  <g id="Group_1890" data-name="Group 1890" transform="translate(-326.933 65)">
    <circle id="Ellipse_3" data-name="Ellipse 3" class="cls-1" cx="11.5" cy="11.5" r="11.5" transform="translate(1116.933 199)"/>
    <g id="thumbs-up-hand-symbol" transform="translate(1120.933 195.864)">
      <g id="Group_1888" data-name="Group 1888" transform="translate(2 9.136)">
        <path id="Path_1626" data-name="Path 1626" class="cls-2" d="M144.679,15.255a1.572,1.572,0,0,0,.395-1.069,1.4,1.4,0,0,0-1.377-1.378H141.71a1.8,1.8,0,0,1,.057-.172,1.2,1.2,0,0,1,.079-.158c.033-.057.057-.1.072-.129q.129-.244.2-.4a2.927,2.927,0,0,0,.136-.43,2.236,2.236,0,0,0,.068-.545c0-.115,0-.208,0-.28a3.087,3.087,0,0,0-.036-.323,1.811,1.811,0,0,0-.086-.359,1.67,1.67,0,0,0-.172-.323,1.006,1.006,0,0,0-.287-.291,1.572,1.572,0,0,0-.43-.186,2.142,2.142,0,0,0-.592-.075.441.441,0,0,0-.323.136,1.245,1.245,0,0,0-.244.359,2.135,2.135,0,0,0-.14.373q-.039.158-.09.438-.065.3-.1.434a2.3,2.3,0,0,1-.126.348,1.1,1.1,0,0,1-.222.344,10.61,10.61,0,0,0-.725.861q-.352.459-.725.868t-.545.423a.47.47,0,0,0-.308.147.433.433,0,0,0-.129.312v4.6a.429.429,0,0,0,.136.319.474.474,0,0,0,.323.14,5.246,5.246,0,0,1,1.133.316q.552.186.864.283t.871.208a5.331,5.331,0,0,0,1.033.111h.925a1.782,1.782,0,0,0,1.413-.56,1.725,1.725,0,0,0,.352-1.3,1.4,1.4,0,0,0,.387-.674,1.475,1.475,0,0,0,0-.839,1.489,1.489,0,0,0,.308-.983A1.709,1.709,0,0,0,144.679,15.255Z" transform="translate(-133.596 -9.136)"/>
        <path id="Path_1627" data-name="Path 1627" class="cls-2" d="M2.525,191.864H.459A.441.441,0,0,0,.136,192a.441.441,0,0,0-.136.323v4.591a.442.442,0,0,0,.136.323.442.442,0,0,0,.323.136H2.525a.465.465,0,0,0,.459-.459v-4.591a.466.466,0,0,0-.459-.459ZM1.7,196.323a.447.447,0,0,1-.323.133.459.459,0,0,1-.326-.782.454.454,0,0,1,.649,0,.455.455,0,0,1,0,.649Z" transform="translate(0 -187.273)"/>
      </g>
    </g>
  </g>
</svg>
