<?xml version="1.0" standalone="no"?>
<!DOCTYPE svg PUBLIC "-//W3C//DTD SVG 20010904//EN"
 "http://www.w3.org/TR/2001/REC-SVG-20010904/DTD/svg10.dtd">
<svg version="1.0" xmlns="http://www.w3.org/2000/svg"
 width="3000.000000pt" height="3000.000000pt" viewBox="0 0 3000.000000 3000.000000"
 preserveAspectRatio="xMidYMid meet">
<metadata>
Created by potrace 1.11, written by Peter Selinger 2001-2013
</metadata>
<g transform="translate(0.000000,3000.000000) scale(0.100000,-0.100000)"
fill="#000000" stroke="none">
<path d="M0 15000 l0 -15000 15000 0 15000 0 0 15000 0 15000 -15000 0 -15000
0 0 -15000z m10030 0 l0 -10230 -1385 0 -1385 0 0 10230 0 10230 1385 0 1385
0 0 -10230z m4230 0 l0 -10230 -1380 0 -1380 0 0 10230 0 10230 1380 0 1380 0
0 -10230z m8460 10221 c0 -8 -4203 -20381 -4215 -20429 l-5 -22 -1380 0 c-759
0 -1380 2 -1380 4 0 5 4217 20397 4225 20434 l5 22 1375 0 c800 0 1375 -4
1375 -9z m-1215 -17702 c446 -53 823 -300 1042 -681 140 -244 200 -505 182
-790 -40 -610 -485 -1118 -1099 -1253 -100 -22 -356 -31 -462 -15 -300 43
-587 187 -796 399 -333 339 -469 822 -360 1286 108 463 463 851 911 994 193
62 394 83 582 60z"/>
</g>
</svg>
